<svg width="85" height="92" viewBox="0 0 85 92" fill="none" xmlns="http://www.w3.org/2000/svg">
<path d="M61.57 31.9019C61.2682 31.5218 61.0683 31.0752 60.988 30.602C60.9078 30.1289 60.9497 29.6438 61.11 29.1901L67.25 11.7574C67.5073 11.0279 68.0532 10.4273 68.7677 10.0877C69.4822 9.74802 70.3068 9.69719 71.06 9.94634C71.8132 10.1955 72.4334 10.7242 72.7841 11.4162C73.1348 12.1082 73.1873 12.9068 72.93 13.6363L68.25 26.9433L76.92 26.3718C77.4142 26.3441 77.9079 26.4353 78.3569 26.6373C78.8059 26.8392 79.1963 27.1456 79.4933 27.5292C79.7904 27.9127 79.9848 28.3615 80.0592 28.8355C80.1337 29.3096 80.0858 29.794 79.92 30.2458L73.78 47.6785C73.6526 48.0397 73.453 48.3731 73.1926 48.6596C72.9322 48.9461 72.6161 49.1801 72.2623 49.3483C71.9085 49.5164 71.524 49.6155 71.1307 49.6397C70.7374 49.664 70.343 49.613 69.97 49.4896C69.597 49.3662 69.2528 49.1729 68.957 48.9207C68.6612 48.6685 68.4196 48.3623 68.2459 48.0197C68.0723 47.6771 67.97 47.3047 67.945 46.9237C67.9199 46.5428 67.9726 46.1609 68.1 45.7997L72.78 32.512L64.11 33.0835C63.6191 33.103 63.1307 33.0055 62.6879 32.7995C62.245 32.5934 61.8611 32.2852 61.57 31.9019ZM0 39.0009V19.8733C0 19.1027 0.316071 18.3637 0.87868 17.8188C1.44129 17.274 2.20435 16.9679 3 16.9679H11V2.90546C11 2.13488 11.3161 1.39587 11.8787 0.850988C12.4413 0.306109 13.2044 0 14 0C14.7956 0 15.5587 0.306109 16.1213 0.850988C16.6839 1.39587 17 2.13488 17 2.90546V16.9679H33.46V2.90546C33.46 2.13488 33.7761 1.39587 34.3387 0.850988C34.9013 0.306109 35.6643 0 36.46 0C37.2556 0 38.0187 0.306109 38.5813 0.850988C39.1439 1.39587 39.46 2.13488 39.46 2.90546V16.9679H47.46C48.2556 16.9679 49.0187 17.274 49.5813 17.8188C50.1439 18.3637 50.46 19.1027 50.46 19.8733V39.0009C50.4531 44.8131 48.1849 50.4094 44.1075 54.6742C40.0302 58.9389 34.4431 61.559 28.46 62.0121C28.46 63.1549 28.4 66.5059 28.46 75.9777C28.5435 78.5784 29.669 81.0455 31.5981 82.8566C33.5272 84.6676 36.1083 85.6804 38.795 85.6804C41.4817 85.6804 44.0628 84.6676 45.9919 82.8566C47.921 81.0455 49.0465 78.5784 49.13 75.9777V74.6121C49.1353 70.4132 50.8613 66.3881 53.9288 63.4209C56.9963 60.4537 61.1545 58.787 65.49 58.787H81.64C82.4356 58.787 83.1987 59.0932 83.7613 59.638C84.3239 60.1829 84.64 60.9219 84.64 61.6925C84.64 62.4631 84.3239 63.2021 83.7613 63.747C83.1987 64.2918 82.4356 64.598 81.64 64.598H65.49C62.7485 64.6005 60.12 65.6564 58.1814 67.5339C56.2429 69.4113 55.1526 71.957 55.15 74.6121V75.9002C55.0526 80.0286 53.2929 83.9566 50.2464 86.8457C47.2 89.7349 43.1081 91.3563 38.8443 91.3639C34.5804 91.3715 30.4824 89.7646 27.425 86.8863C24.3676 84.008 22.593 80.0863 22.48 75.9583C22.48 67.484 22.48 63.7651 22.48 62.0024C16.4131 61.662 10.7089 59.0925 6.53138 54.818C2.35386 50.5436 0.0178453 44.8864 0 39.0009ZM6 39.0009C6.00529 43.5791 7.88551 47.9683 11.2281 51.2056C14.5708 54.4429 19.1028 56.2639 23.83 56.269H26.66C31.3872 56.2639 35.9192 54.4429 39.2619 51.2056C42.6045 47.9683 44.4847 43.5791 44.49 39.0009V22.7788H6V39.0009Z" fill="white"/>
</svg>
