<svg width="11" height="8" viewBox="0 0 11 8" fill="none" xmlns="http://www.w3.org/2000/svg">
<path d="M4.875 0.603516C5.72721 0.603516 6.35156 0.822266 6.74805 1.25977C7.14453 1.69727 7.34733 2.37858 7.35645 3.30371V5.56641H5.69531V3.36523C5.69531 2.86849 5.59277 2.50846 5.3877 2.28516C5.18262 2.05729 4.84082 1.94336 4.3623 1.94336H2.05176V8H0.390625V0.603516H4.875ZM3.18652 8V3.03711H4.84766V6.66699H7.14453C7.6276 6.66699 7.9694 6.55762 8.16992 6.33887C8.375 6.11556 8.47982 5.76693 8.48438 5.29297V0.603516H10.1523V5.25879C10.1478 6.11556 9.87207 6.78776 9.3252 7.27539C8.78288 7.75846 8.01042 8 7.00781 8H3.18652Z" fill="#F2F2F2"/>
</svg>
