<svg width="99" height="83" viewBox="0 0 99 83" fill="none" xmlns="http://www.w3.org/2000/svg">
<path d="M71.9815 36.5134C65.1748 32.3919 57.309 30.2065 49.2815 30.2065C41.254 30.2065 33.3881 32.3919 26.5815 36.5134C25.291 37.3024 24.2015 38.3639 23.3945 39.6185C22.5875 40.873 22.0839 42.288 21.9215 43.7577C21.7383 45.2797 21.913 46.8222 22.4326 48.2696C22.9521 49.717 23.803 51.0319 24.9215 52.1157L25.3415 52.5224C27.0019 54.094 29.1622 55.0756 31.4715 55.3077C33.7808 55.5398 36.1032 55.0088 38.0615 53.8008C41.4407 51.8088 45.3205 50.7552 49.2765 50.7552C53.2325 50.7552 57.1123 51.8088 60.4915 53.8008C62.1745 54.8084 64.1128 55.3448 66.0915 55.3504C67.4225 55.3566 68.7415 55.1054 69.9709 54.6115C71.2004 54.1175 72.3157 53.3908 73.2515 52.474L73.6715 52.0673C74.79 50.9834 75.6409 49.6686 76.1604 48.2212C76.6799 46.7738 76.8546 45.2313 76.6715 43.7092C76.4991 42.2453 75.9879 40.838 75.1758 39.5921C74.3638 38.3462 73.2719 37.2938 71.9815 36.5134ZM69.3815 48.0093L68.9615 48.4161C68.2565 49.0682 67.3423 49.467 66.3708 49.5463C65.3994 49.6256 64.4292 49.3805 63.6215 48.8519C59.2988 46.2999 54.334 44.9499 49.2715 44.9499C44.209 44.9499 39.2442 46.2999 34.9215 48.8519C34.1153 49.3798 33.1468 49.6244 32.177 49.5451C31.2073 49.4659 30.2949 49.0674 29.5915 48.4161L29.1715 48.0093C28.688 47.5428 28.3199 46.9763 28.0947 46.3523C27.8696 45.7284 27.7933 45.0631 27.8715 44.4065C27.9228 43.7892 28.1222 43.1919 28.4538 42.6623C28.7854 42.1327 29.24 41.6853 29.7815 41.3558C35.6301 37.8193 42.3865 35.9443 49.2815 35.9443C56.1764 35.9443 62.9328 37.8193 68.7815 41.3558C69.311 41.6786 69.7573 42.1143 70.0866 42.6296C70.4159 43.1448 70.6193 43.7261 70.6815 44.3291C70.7644 44.9903 70.6904 45.6612 70.4651 46.2906C70.2398 46.9199 69.8692 47.4912 69.3815 47.9609V48.0093ZM94.5315 15.7588C81.6517 5.8771 65.6828 0.535169 49.2515 0.61165C32.8106 0.545959 16.8369 5.90539 3.96148 15.8072C2.81122 16.6917 1.86598 17.8007 1.18718 19.0621C0.508385 20.3235 0.111214 21.7091 0.0214762 23.1289C-0.0730474 24.5656 0.145165 26.0054 0.661971 27.3551C1.17878 28.7049 1.98264 29.9344 3.02148 30.964C4.83068 32.7579 7.25998 33.8419 9.84356 34.0082C12.4271 34.1744 14.9832 33.4111 17.0215 31.8647C26.2443 24.9836 37.5592 21.252 49.2015 21.252C60.8437 21.252 72.1586 24.9836 81.3815 31.8647C83.4053 33.3972 85.9383 34.1596 88.5025 34.0079C91.0668 33.8563 93.4852 32.8011 95.3015 31.0414L95.4015 30.9543C96.4586 29.928 97.2795 28.6968 97.8103 27.3414C98.3411 25.986 98.5699 24.5372 98.4815 23.0902C98.3925 21.6678 97.9947 20.2797 97.3141 19.0164C96.6334 17.753 95.6852 16.643 94.5315 15.7588ZM91.1615 26.8285L91.0715 26.9157C90.2919 27.6789 89.25 28.138 88.1438 28.2059C87.0376 28.2737 85.9442 27.9456 85.0715 27.2837C74.7876 19.6087 62.1696 15.4464 49.1865 15.4464C36.2034 15.4464 23.5854 19.6087 13.3015 27.2837C12.4252 27.9419 11.3297 28.2651 10.2234 28.1918C9.11708 28.1186 8.07716 27.6541 7.30148 26.8867C6.8496 26.4404 6.49949 25.9072 6.27383 25.3217C6.04817 24.7361 5.95198 24.1111 5.99148 23.4873C6.02543 22.8801 6.19287 22.2869 6.48259 21.7474C6.77232 21.2079 7.17765 20.7346 7.67148 20.3591C19.4936 11.2726 34.159 6.35717 49.2515 6.42256C64.3357 6.34835 78.9967 11.2498 90.8215 20.3203C91.317 20.6965 91.7234 21.1713 92.0132 21.7126C92.3031 22.2539 92.4696 22.8492 92.5015 23.4582C92.5334 24.0795 92.4307 24.7003 92.1999 25.2808C91.9691 25.8613 91.6154 26.3885 91.1615 26.8285ZM49.2515 82.1C52.1272 82.0997 54.9139 81.1337 57.1366 79.3666C59.3594 77.5996 60.8808 75.1407 61.4415 72.4091C62.0023 69.6775 61.5677 66.842 60.2119 64.3859C58.856 61.9298 56.6628 60.005 54.0059 58.9394C51.3489 57.8738 48.3927 57.7334 45.6409 58.5421C42.889 59.3508 40.5119 61.0586 38.9144 63.3744C37.3169 65.6903 36.598 68.471 36.8801 71.2426C37.1622 74.0143 38.4279 76.6055 40.4615 78.5747C41.6129 79.6964 42.9827 80.5856 44.4916 81.1907C46.0005 81.7959 47.6183 82.1049 49.2515 82.1ZM44.7015 65.6357C45.7529 64.616 47.1369 63.981 48.6176 63.8389C50.0983 63.6968 51.584 64.0565 52.8216 64.8567C54.0591 65.6568 54.9718 66.8478 55.4041 68.2267C55.8364 69.6056 55.7615 71.0871 55.1923 72.4185C54.623 73.7499 53.5945 74.8489 52.2822 75.5281C50.9699 76.2074 49.455 76.4248 47.9957 76.1434C46.5364 75.8619 45.223 75.099 44.2795 73.9847C43.336 72.8705 42.8207 71.4737 42.8215 70.0327C42.8276 69.2187 42.9995 68.414 43.3272 67.6645C43.655 66.915 44.1322 66.2354 44.7315 65.6648L44.7015 65.6357Z" fill="white"/>
</svg>
