<svg width="83" height="93" viewBox="0 0 83 93" fill="none" xmlns="http://www.w3.org/2000/svg">
<path d="M70.57 66.6608C70.2033 66.069 69.6844 65.5795 69.0639 65.24C68.4434 64.9005 67.7426 64.7226 67.03 64.7239C66.3173 64.7226 65.6166 64.9005 64.9961 65.24C64.3756 65.5795 63.8567 66.069 63.49 66.6608L57.49 76.181C56.4453 77.8211 55.8599 79.6964 55.7915 81.6223C55.7231 83.5481 56.1741 85.458 57.1 87.1637C57.9614 88.8091 59.2492 90.2096 60.8374 91.2283C62.4255 92.2469 64.2596 92.8486 66.16 92.9746H67H67.83C69.7321 92.8502 71.5683 92.2493 73.1583 91.2306C74.7484 90.2119 76.0377 88.8104 76.9 87.1637C77.8233 85.4633 78.2747 83.5597 78.2098 81.6395C78.145 79.7193 77.5661 77.8484 76.53 76.2101L70.53 66.6899L70.57 66.6608ZM71.57 84.4616C71.1857 85.2224 70.6021 85.8724 69.8774 86.3465C69.1527 86.8207 68.3123 87.1024 67.44 87.1637C67.1604 87.1835 66.8796 87.1835 66.6 87.1637C65.7263 87.1076 64.8831 86.8303 64.1548 86.3595C63.4265 85.8887 62.8386 85.2409 62.45 84.481C62.0058 83.6651 61.788 82.7516 61.8178 81.8298C61.8476 80.9079 62.124 80.0094 62.62 79.2221L67.02 72.2199L71.42 79.2318C71.9139 80.0159 72.1901 80.9105 72.2216 81.8286C72.2531 82.7467 72.039 83.657 71.6 84.4713L71.57 84.4616ZM24.91 17.3649C23.0611 17.3744 21.2726 18.0039 19.8487 19.1462C18.4249 20.2886 17.4536 21.8734 17.1 23.631H8C5.87827 23.631 3.84344 24.4473 2.34315 25.9003C0.842855 27.3533 0 29.3241 0 31.3789V36.3569C0 38.4118 0.842855 40.3825 2.34315 41.8355C3.84344 43.2885 5.87827 44.1048 8 44.1048H17.1C17.4556 45.8607 18.4278 47.4432 19.8515 48.5837C21.2751 49.7241 23.0625 50.3522 24.91 50.3612H42.59C44.4458 50.3607 46.2437 49.7353 47.6758 48.5922C49.1079 47.4491 50.0851 45.8593 50.44 44.0951H56.44V46.187C55.056 46.8074 53.8839 47.7979 53.0618 49.0419C52.2397 50.2859 51.8019 51.7316 51.8 53.2086V54.0899C51.8 56.1448 52.6428 58.1155 54.1431 59.5685C55.6434 61.0215 57.6783 61.8378 59.8 61.8378H74.24C76.3617 61.8378 78.3966 61.0215 79.8968 59.5685C81.3971 58.1155 82.24 56.1448 82.24 54.0899V53.2086C82.238 51.7316 81.8002 50.2859 80.9782 49.0419C80.1561 47.7979 78.984 46.8074 77.6 46.187V31.3692C77.6 29.3144 76.7571 27.3437 75.2568 25.8907C73.7566 24.4376 71.7217 23.6213 69.6 23.6213H50.43C50.0751 21.8572 49.0979 20.2674 47.6658 19.1243C46.2337 17.9812 44.4358 17.3558 42.58 17.3553H41.87V15.4958H43.98C46.1017 15.4958 48.1366 14.6795 49.6368 13.2265C51.1371 11.7734 51.98 9.80275 51.98 7.74788C51.98 5.69301 51.1371 3.72231 49.6368 2.2693C48.1366 0.816292 46.1017 0 43.98 0H23.79C21.6683 0 19.6334 0.816292 18.1331 2.2693C16.6329 3.72231 15.79 5.69301 15.79 7.74788C15.79 9.80275 16.6329 11.7734 18.1331 13.2265C19.6334 14.6795 21.6683 15.4958 23.79 15.4958H25.9V17.3843L24.91 17.3649ZM28.91 9.66548H23.79C23.2596 9.66548 22.7509 9.46141 22.3758 9.09816C22.0007 8.7349 21.79 8.24223 21.79 7.72851C21.79 7.21479 22.0007 6.72212 22.3758 6.35887C22.7509 5.99561 23.2596 5.79154 23.79 5.79154H43.99C44.5204 5.79154 45.0291 5.99561 45.4042 6.35887C45.7793 6.72212 45.99 7.21479 45.99 7.72851C45.99 8.24223 45.7793 8.7349 45.4042 9.09816C45.0291 9.46141 44.5204 9.66548 43.99 9.66548H38.88C38.0843 9.66548 37.3213 9.97159 36.7587 10.5165C36.1961 11.0613 35.88 11.8004 35.88 12.5709V20.2704C35.88 21.041 36.1961 21.78 36.7587 22.3249C37.3213 22.8697 38.0843 23.1758 38.88 23.1758H42.59C43.1204 23.1758 43.6291 23.3799 44.0042 23.7432C44.3793 24.1064 44.59 24.5991 44.59 25.1128V26.5365C44.59 27.3071 44.9061 28.0461 45.4687 28.591C46.0313 29.1358 46.7943 29.4419 47.59 29.4419H69.59C70.1204 29.4419 70.6291 29.646 71.0042 30.0093C71.3793 30.3725 71.59 30.8652 71.59 31.3789V48.4243C71.5881 49.1609 71.8752 49.8706 72.3932 50.41C72.9111 50.9494 73.6213 51.2781 74.38 51.3297C74.884 51.3664 75.355 51.5866 75.6982 51.9459C76.0414 52.3053 76.2314 52.7772 76.23 53.2667V54.148C76.23 54.6617 76.0193 55.1544 75.6442 55.5176C75.2691 55.8809 74.7604 56.085 74.23 56.085H59.81C59.2796 56.085 58.7708 55.8809 58.3958 55.5176C58.0207 55.1544 57.81 54.6617 57.81 54.148V53.2667C57.8086 52.7772 57.9986 52.3053 58.3418 51.9459C58.685 51.5866 59.156 51.3664 59.66 51.3297C60.4187 51.2781 61.1289 50.9494 61.6468 50.41C62.1648 49.8706 62.4519 49.1609 62.45 48.4243V41.1897C62.45 40.4191 62.1339 39.6801 61.5713 39.1352C61.0087 38.5903 60.2456 38.2842 59.45 38.2842H47.58C46.7843 38.2842 46.0213 38.5903 45.4587 39.1352C44.8961 39.6801 44.58 40.4191 44.58 41.1897V42.6133C44.58 43.1271 44.3693 43.6197 43.9942 43.983C43.6191 44.3462 43.1104 44.5503 42.58 44.5503H24.91C24.3796 44.5503 23.8709 44.3462 23.4958 43.983C23.1207 43.6197 22.91 43.1271 22.91 42.6133V41.1897C22.91 40.4191 22.5939 39.6801 22.0313 39.1352C21.4687 38.5903 20.7056 38.2842 19.91 38.2842H7.91C7.37957 38.2842 6.87086 38.0801 6.49579 37.7169C6.12071 37.3536 5.91 36.861 5.91 36.3472V31.3692C5.91 30.8555 6.12071 30.3628 6.49579 29.9996C6.87086 29.6363 7.37957 29.4323 7.91 29.4323H19.91C20.7056 29.4323 21.4687 29.1262 22.0313 28.5813C22.5939 28.0364 22.91 27.2974 22.91 26.5268V25.1031C22.91 24.5894 23.1207 24.0967 23.4958 23.7335C23.8709 23.3702 24.3796 23.1662 24.91 23.1662H28.91C29.7056 23.1662 30.4687 22.8601 31.0313 22.3152C31.5939 21.7703 31.91 21.0313 31.91 20.2607V12.5903C31.91 12.2079 31.8321 11.8293 31.6807 11.4762C31.5293 11.1231 31.3074 10.8023 31.0278 10.5324C30.7481 10.2625 30.4163 10.0487 30.0511 9.90323C29.686 9.75779 29.2948 9.68358 28.9 9.68485L28.91 9.66548Z" fill="white"/>
</svg>
